<svg width="24" height="24" viewBox="0 0 24 24" fill="none" xmlns="http://www.w3.org/2000/svg">
<rect width="24" height="24" fill="white" fill-opacity="0.01"/>
<path fill-rule="evenodd" clip-rule="evenodd" d="M11.433 5.42796L7.226 6.02796C6.79751 6.08947 6.40056 6.28834 6.09474 6.5947C5.78892 6.90106 5.59075 7.29837 5.53 7.72696L4.93 11.934C4.90773 12.0876 4.92153 12.2443 4.9703 12.3916C5.01908 12.539 5.10148 12.673 5.211 12.783L12.106 19.677C12.1988 19.7699 12.309 19.8436 12.4303 19.894C12.5516 19.9443 12.6817 19.9702 12.813 19.9702C12.9443 19.9702 13.0744 19.9443 13.1957 19.894C13.317 19.8436 13.4272 19.7699 13.52 19.677L19.177 14.02C19.3645 13.8324 19.4698 13.5781 19.4698 13.313C19.4698 13.0478 19.3645 12.7935 19.177 12.606L12.282 5.70996C12.1723 5.59996 12.0384 5.51709 11.891 5.46796C11.7436 5.41883 11.5868 5.40479 11.433 5.42696V5.42796ZM10.786 11.285C10.6318 11.4418 10.448 11.5665 10.2453 11.6519C10.0427 11.7373 9.82509 11.7817 9.60516 11.7826C9.38522 11.7835 9.16729 11.7409 8.96392 11.6571C8.76055 11.5734 8.57578 11.4502 8.42026 11.2947C8.26474 11.1392 8.14156 10.9544 8.05781 10.751C7.97406 10.5477 7.93141 10.3297 7.93232 10.1098C7.93322 9.88987 7.97766 9.67229 8.06308 9.46962C8.1485 9.26695 8.2732 9.08319 8.43 8.92896C8.74256 8.6164 9.16647 8.44081 9.6085 8.44081C10.0505 8.44081 10.4744 8.6164 10.787 8.92896C11.0996 9.24152 11.2751 9.66544 11.2751 10.1075C11.2751 10.5495 11.0996 10.9734 10.787 11.286" fill="black"/>
</svg>
